# xmcd CD database file
#
# Track frame offsets:
#	150
#	20844
#	44701
#	67226
#	86699
#	101394
#	116141
#	133545
#	150425
#	173550
#	198730
#
# Disc length: 3005 seconds
#
# Revision: 0
# Processed by: cddbd v1.5PL3 Copyright (c) Steve Scherf et al.
# Submitted via: CDex 1.51
#
DISCID=9b0bbb0b
DTITLE=Reba Russell Band - City of the Blues
DYEAR=1900
DGENRE=Blues
TTITLE0=Part-Time Love
TTITLE1=Dry River
TTITLE2=Heaven Came to Helena
TTITLE3=When the Lights Go Out
TTITLE4=Another Saterday Nite
TTITLE5=Swing N Sway
TTITLE6=When You Get the Chance
TTITLE7=Not by Man Alone
TTITLE8=A Lover is Forever
TTITLE9=Gona Move to Mississippi
TTITLE10=Your Love is All You Got
EXTD=
EXTT0=
EXTT1=
EXTT2=
EXTT3=
EXTT4=
EXTT5=
EXTT6=
EXTT7=
EXTT8=
EXTT9=
EXTT10=
PLAYORDER=
